<svg width="64" height="64" viewBox="0 0 64 64" fill="none" xmlns="http://www.w3.org/2000/svg">
<g clip-path="url(#clip0_9_3)">
<path d="M31.422 20.0149C31.422 20.8085 31.7206 21.532 32.2114 22.0798H36.8271C37.318 21.532 37.6168 20.8085 37.6168 20.0149C37.6168 18.9419 37.0706 17.9965 36.2417 17.4404L36.7144 16.475C36.8755 16.4493 37.022 16.349 37.099 16.1917C37.2242 15.9357 37.1182 15.6263 36.8622 15.5011C36.606 15.3755 36.2968 15.4814 36.1717 15.7378C36.081 15.9228 36.1119 16.1347 36.2319 16.2859L35.7895 17.1904C35.4017 17.0159 34.972 16.918 34.5194 16.918C34.0665 16.918 33.6369 17.0159 33.2491 17.1904L32.8068 16.2859C32.9269 16.1347 32.9576 15.9228 32.8671 15.7378C32.7417 15.4814 32.4325 15.3755 32.1765 15.5011C31.9203 15.6263 31.8142 15.9357 31.9398 16.1917C32.0168 16.349 32.1633 16.4493 32.3244 16.475L32.7971 17.4404C31.9678 17.9965 31.422 18.9419 31.422 20.0149Z" fill="black"/>
<path d="M30.3122 23.7513C31.4922 23.1616 31.1598 22.3093 30.6187 21.7114C29.2175 20.1625 24.3505 17.3602 21.807 16.918C21.0805 16.7911 19.4964 16.8686 19.9388 19.1305C20.0912 19.9098 21.168 23.358 23.5279 24.5387C25.8876 25.7178 29.3076 24.2538 30.3122 23.7513Z" fill="black"/>
<path d="M31.5121 23.8365C31.2605 24.0779 30.9391 24.2626 30.6421 24.4109C30.0259 24.7192 27.8444 25.724 25.6388 25.724C25.4433 25.724 25.2533 25.7143 25.067 25.6986C23.8393 27.0016 23.4081 28.7647 24.0684 29.897C24.757 31.0771 26.7783 31.4145 28.2476 30.487C30.1158 29.3071 31.2708 25.8653 31.4677 24.8825C31.5235 24.602 31.6317 24.0258 31.5121 23.8365Z" fill="black"/>
<path d="M47.2316 16.918C44.6881 17.3602 39.821 20.1625 38.4199 21.7113C37.879 22.3093 37.5464 23.1616 38.7262 23.7513C39.731 24.2538 43.151 25.7178 45.5108 24.5385C47.8707 23.358 48.9474 19.9097 49.0999 19.1305C49.5422 16.8686 47.9581 16.7911 47.2316 16.918Z" fill="black"/>
<path d="M43.3995 25.724C41.1941 25.724 39.0126 24.7192 38.3965 24.4109C38.0996 24.2624 37.7779 24.0779 37.5265 23.8363C37.4069 24.0258 37.5148 24.602 37.5709 24.8825C37.7675 25.8651 38.923 29.3071 40.791 30.4867C42.2601 31.4145 44.2814 31.0771 44.9699 29.897C45.6302 28.7645 45.1992 27.0014 43.9715 25.6986C43.7853 25.7143 43.5953 25.724 43.3995 25.724Z" fill="black"/>
<path d="M36.6947 22.6697H32.3438C32.1807 22.6697 32.0486 22.8019 32.0486 22.965V24.8452C32.0486 25.0081 32.1807 25.1405 32.3438 25.1405H36.6947C36.8576 25.1405 36.9898 25.0081 36.9898 24.8452V22.965C36.9898 22.8019 36.8576 22.6697 36.6947 22.6697Z" fill="black"/>
<path d="M32.3065 25.841C32.115 26.0233 31.5204 26.929 31.1192 28.1271H37.9193C37.5181 26.9288 36.9238 26.0233 36.732 25.841H32.3065Z" fill="black"/>
<path d="M30.7694 29.6755C30.7198 30.1246 30.7165 30.5867 30.7818 31.0466C30.8284 31.3757 30.8968 31.6793 30.9809 31.9618H38.0582C38.1425 31.6793 38.2104 31.3757 38.257 31.0466C38.3221 30.5867 38.319 30.1246 38.2691 29.6755H30.7694Z" fill="black"/>
<path d="M34.1601 35.3112L34.4287 37.1244C34.441 37.2078 34.513 37.2696 34.5975 37.2696C34.6823 37.2696 34.7544 37.2078 34.7666 37.1244L35.044 35.251C35.6262 35.0274 36.5798 34.5311 37.3102 33.5104H31.729C32.5341 34.6342 33.609 35.1234 34.1601 35.3112Z" fill="black"/>
<path d="M59.5862 43.6122L34.2069 57.3793L8.82758 43.6122V16.0272L34.2069 2.20689L59.5862 16.0272V43.6122Z" fill="#FDB913"/>
<g filter="url(#filter0_ii_9_3)">
<path d="M59.5862 43.6122L34.2069 57.3793L8.82758 43.6122V16.0272L34.2069 2.20689L59.5862 16.0272V43.6122Z" fill="#FDB913"/>
</g>
<path d="M60.3882 44.4787C60.7439 44.2856 60.9655 43.9135 60.9655 43.5088V15.9238C60.9655 15.5197 60.7446 15.1479 60.3897 14.9547L35.0104 1.13437C34.6814 0.95521 34.2841 0.95521 33.9551 1.13437L8.57574 14.9547C8.22087 15.1479 8 15.5197 8 15.9238V43.5088C8 43.9135 8.22155 44.2856 8.5773 44.4787L33.9566 58.2458C34.2848 58.4239 34.6807 58.4239 35.0089 58.2458L60.3882 44.4787Z" stroke="#272727" stroke-width="3" stroke-linejoin="round"/>
<path d="M39.0241 21.9562H29.5592V24.2046H39.0241V21.9562Z" fill="#272727"/>
<path d="M39.0241 25.2451H29.5592V27.4937H39.0241V25.2451Z" fill="#272727"/>
<path d="M29.777 28.6532C30.3292 30.4091 31.8775 31.7204 33.7596 31.9316V33.2076C33.7596 33.5016 33.9977 33.7399 34.2916 33.7399C34.5858 33.7399 34.8239 33.5016 34.8239 33.2076V31.9316C36.7058 31.7204 38.2541 30.4091 38.8065 28.6532H29.777Z" fill="#272727"/>
<path d="M29.333 13.1535C29.6172 13.2407 29.9101 13.2044 30.1544 13.0756C30.837 13.6559 31.281 14.2293 31.5738 14.7252C30.3567 15.5817 29.5592 16.9942 29.5592 18.5957V20.8441H39.0241V18.5957C39.0241 16.9942 38.2265 15.5817 37.0097 14.7252C37.3025 14.2293 37.7459 13.6559 38.4287 13.0756C38.6728 13.2044 38.9656 13.2407 39.2505 13.1535C39.8228 12.9786 40.1443 12.3728 39.97 11.801C39.795 11.2294 39.1894 10.9072 38.6169 11.0821C38.0454 11.2569 37.7238 11.8622 37.8981 12.4345C37.9109 12.4762 37.9306 12.5136 37.9478 12.5525C37.2175 13.1778 36.7269 13.8069 36.399 14.363C35.7639 14.0462 35.0497 13.8633 34.2919 13.8633C33.5338 13.8633 32.8196 14.0462 32.1841 14.363C31.8561 13.8069 31.3655 13.1784 30.6357 12.5525C30.6529 12.5136 30.6726 12.4762 30.6849 12.4345C30.8597 11.8622 30.5377 11.2569 29.9659 11.0821C29.3937 10.9072 28.7883 11.2294 28.6135 11.801C28.4385 12.3728 28.7607 12.9786 29.333 13.1535Z" fill="#272727"/>
<path d="M27.2344 30.8601C26.1983 30.8601 25.2659 30.4437 24.5844 29.7649C23.9049 29.0831 23.4884 28.151 23.4884 27.1142C23.4884 26.7736 23.5339 26.4422 23.6211 26.1299C24.5036 26.9603 25.6894 27.4692 26.9979 27.4692C27.6687 27.4692 28.3081 27.334 28.8907 27.0914V25.7688C28.3346 26.0957 27.6908 26.2863 26.9979 26.2863C25.9617 26.2863 25.0289 25.8673 24.3478 25.1884C24.2812 25.1218 24.2178 25.0536 24.156 24.9799C23.8793 24.6603 23.659 24.294 23.5052 23.8938C23.3419 23.4748 23.2519 23.0184 23.2519 22.5404C23.2519 21.504 23.6683 20.5691 24.3478 19.8902C25.0289 19.2107 25.9617 18.7922 26.9979 18.7922C27.6908 18.7922 28.3348 18.9827 28.8907 19.3098V17.9882C28.3081 17.7451 27.6687 17.6092 26.9979 17.6092C24.2745 17.6114 22.069 19.8171 22.069 22.5404C22.069 23.4586 22.3201 24.3171 22.7575 25.0536C22.4664 25.6805 22.3055 26.3784 22.3055 27.1142C22.3055 29.8379 24.5113 32.043 27.2344 32.043C28.4147 32.043 29.4965 31.6279 30.3448 30.9376C30.078 30.6496 29.8408 30.3322 29.6395 29.9869C28.9869 30.5331 28.1516 30.8601 27.2344 30.8601Z" fill="#272727"/>
<path d="M46.5139 22.5404C46.5139 19.8171 44.3087 17.6114 41.5854 17.6092C40.9141 17.6092 40.2752 17.7451 39.6921 17.9882V19.3098C40.2483 18.9827 40.8925 18.7922 41.5854 18.7922C42.6218 18.7922 43.554 19.2107 44.2357 19.8902C44.9145 20.5691 45.331 21.5041 45.331 22.5404C45.331 23.0184 45.2412 23.4748 45.0776 23.8938C44.9242 24.294 44.704 24.6603 44.4273 24.9799C44.3657 25.0536 44.3017 25.1218 44.2357 25.1884C43.554 25.8673 42.6218 26.2863 41.5854 26.2863C40.8925 26.2863 40.2483 26.0957 39.6921 25.7688V27.0914C40.2752 27.334 40.9148 27.4692 41.5854 27.4692C42.8941 27.4692 44.0792 26.9603 44.9618 26.1299C45.0494 26.4422 45.0944 26.7736 45.0944 27.1142C45.0944 28.151 44.678 29.0831 43.9991 29.7649C43.3174 30.4437 42.3852 30.8601 41.3489 30.8601C40.4312 30.8601 39.5964 30.5331 38.944 29.9869C38.7427 30.3322 38.505 30.6496 38.2387 30.9376C39.0863 31.6277 40.1688 32.043 41.3489 32.043C44.0722 32.043 46.2773 29.8379 46.2773 27.1142C46.2773 26.3784 46.1166 25.6805 45.8258 25.0536C46.2632 24.3171 46.5139 23.4586 46.5139 22.5404Z" fill="#272727"/>
<path d="M15.5942 42.0698C15.1575 42.0531 14.7606 41.9361 14.4033 41.7192C14.0505 41.5022 13.7738 41.2087 13.5734 40.8388C13.3776 40.4648 13.2895 40.0505 13.3092 39.5964C13.3289 39.1422 13.4525 38.7383 13.6799 38.385C13.9117 38.0317 14.2129 37.7607 14.5833 37.5718C14.9582 37.3831 15.364 37.2972 15.8006 37.3142C16.2372 37.331 16.632 37.4479 16.9848 37.6649C17.3421 37.8818 17.6165 38.1751 17.8081 38.5448C18.0041 38.9144 18.0923 39.3265 18.0726 39.7806C18.0529 40.2348 17.9292 40.6409 17.7016 40.9986C17.4742 41.3522 17.1753 41.6232 16.8048 41.8121C16.4343 42.001 16.0308 42.0868 15.5942 42.0698ZM15.639 41.0381C16.0094 41.0525 16.3103 40.9404 16.5415 40.702C16.7772 40.4639 16.9038 40.1419 16.9214 39.7361C16.9392 39.326 16.8409 38.9954 16.6265 38.7441C16.4167 38.4887 16.1266 38.3537 15.7561 38.3393C15.3812 38.325 15.076 38.4344 14.8406 38.6684C14.6095 38.9023 14.485 39.2267 14.467 39.6412C14.4492 40.0512 14.5452 40.384 14.755 40.6396C14.9694 40.8907 15.264 41.0236 15.639 41.0381Z" fill="#272727"/>
<path d="M22.2298 39.0705C22.2212 39.3397 22.1515 39.5849 22.0206 39.8062C21.8899 40.0234 21.6945 40.1966 21.4341 40.326C21.1738 40.4553 20.8539 40.5144 20.4745 40.5036L19.773 40.4833L19.719 42.1508L18.5874 42.1182L18.7377 37.4729L20.5709 37.5259C20.9415 37.5364 21.2527 37.6095 21.5044 37.7448C21.7562 37.8801 21.9424 38.0621 22.063 38.2908C22.1837 38.5194 22.2393 38.7794 22.2298 39.0705ZM20.4176 39.6012C20.6338 39.6074 20.7965 39.5613 20.9056 39.4628C21.0148 39.3644 21.0724 39.2225 21.0784 39.0374C21.0844 38.852 21.0361 38.7072 20.9335 38.6026C20.8309 38.4982 20.6715 38.4428 20.4553 38.4364L19.8398 38.4188L19.8021 39.5833L20.4176 39.6012Z" fill="#272727"/>
<path d="M26.2897 39.1126C26.2091 38.9566 26.0904 38.8374 25.9332 38.7549C25.7805 38.6681 25.5982 38.6227 25.3864 38.6187C25.02 38.6119 24.7241 38.7275 24.4983 38.9661C24.2725 39.2002 24.1554 39.518 24.1468 39.9194C24.1377 40.3476 24.2452 40.685 24.4696 40.9322C24.6985 41.175 25.0158 41.3001 25.4217 41.3078C25.6998 41.3131 25.9352 41.2471 26.1279 41.1094C26.3252 40.9719 26.4706 40.7715 26.5646 40.5085L25.1282 40.4811L25.146 39.6471L27.6085 39.6939L27.586 40.7464C27.4962 41.0273 27.347 41.2871 27.1389 41.5258C26.9352 41.7649 26.6772 41.9564 26.3651 42.1005C26.0531 42.2446 25.7028 42.313 25.3144 42.3058C24.8554 42.2969 24.4471 42.1899 24.0896 41.9844C23.7365 41.7746 23.4622 41.4892 23.2669 41.1277C23.0757 40.7667 22.9853 40.3566 22.995 39.8976C23.0049 39.4388 23.1128 39.0325 23.3189 38.6787C23.5297 38.3208 23.8159 38.0458 24.1777 37.854C24.5394 37.6578 24.9498 37.5642 25.4087 37.5729C25.9648 37.5834 26.4296 37.7269 26.8034 38.0034C27.1817 38.2799 27.4275 38.6575 27.5407 39.1364L26.2897 39.1126Z" fill="#272727"/>
<path d="M35.7716 39.1839C35.7711 39.4531 35.7089 39.7003 35.5851 39.9252C35.4611 40.1457 35.2711 40.3242 35.0148 40.4608C34.7586 40.5972 34.4408 40.6652 34.0612 40.6647L33.3594 40.6638L33.357 42.3323L32.2249 42.3307L32.2317 37.683L34.0654 37.6854C34.4362 37.6859 34.7496 37.7503 35.0053 37.8785C35.2611 38.007 35.4529 38.1837 35.5807 38.4091C35.7082 38.6344 35.7718 38.8926 35.7716 39.1839ZM33.9765 39.7641C34.1928 39.7645 34.3539 39.714 34.46 39.6125C34.566 39.5112 34.6191 39.3677 34.6196 39.1823C34.6198 38.997 34.5671 38.8535 34.4611 38.7518C34.3554 38.6503 34.1943 38.5993 33.978 38.5988L33.3623 38.5982L33.3608 39.7634L33.9765 39.7641Z" fill="#272727"/>
<path d="M37.8441 37.6611L37.8706 40.4416C37.8732 40.7197 37.9438 40.9331 38.082 41.082C38.2204 41.231 38.4218 41.3043 38.6867 41.3021C38.9515 41.2996 39.1539 41.2231 39.2936 41.0717C39.4333 40.9205 39.5019 40.7058 39.4993 40.4277L39.4728 37.6472L40.6049 37.6375L40.6314 40.4114C40.6354 40.8263 40.5504 41.178 40.3765 41.4663C40.2028 41.7547 39.9665 41.973 39.6679 42.1213C39.3735 42.2694 39.0431 42.345 38.6767 42.3481C38.3104 42.3512 37.9809 42.2835 37.6883 42.1447C37.4001 42.0014 37.1708 41.7871 37.0002 41.5018C36.8298 41.2118 36.7424 40.8596 36.7384 40.4447L36.7119 37.6706L37.8441 37.6611Z" fill="#272727"/>
<path d="M45.2142 37.5437L45.2328 38.4505L44.0015 38.4733L44.0786 42.2131L42.9466 42.2338L42.8696 38.494L41.6384 38.5167L41.6196 37.6097L45.2142 37.5437Z" fill="#272727"/>
<path d="M49.3833 41.2473L47.6493 41.2963L47.3973 42.1246L46.2129 42.1581L47.7469 37.4654L49.0571 37.4283L50.8851 42.0264L49.6872 42.0601L49.3833 41.2473ZM49.0644 40.382L48.435 38.6977L47.9197 40.4145L49.0644 40.382Z" fill="#272727"/>
<path d="M54.4029 41.877L52.7526 39.8868L52.8415 41.9372L51.7102 41.9811L51.5087 37.3378L52.64 37.2939L52.7283 39.3313L54.1879 37.2341L55.5178 37.1825L53.8172 39.5275L55.7855 41.8233L54.4029 41.877Z" fill="#272727"/>
<path d="M57.0399 43.2238L45.8143 49.705C45.662 49.7929 45.4747 49.7929 45.3226 49.705L34.3431 43.3657L23.3682 49.7022C23.2161 49.79 23.0285 49.79 22.8765 49.7022L11.6512 43.2212C11.4991 43.1331 11.4054 42.9709 11.4054 42.7953L11.4052 29.8333C11.4052 29.6576 11.4991 29.4954 11.6511 29.4076L22.626 23.0711V10.3931C22.6258 10.2174 22.7198 10.055 22.8716 9.96727L34.0974 3.48614C34.2495 3.39827 34.4369 3.39824 34.5889 3.48614L45.8143 9.96725C45.9661 10.0553 46.0599 10.2175 46.0601 10.393V23.0711L57.0397 29.4102C57.1917 29.4983 57.2853 29.6605 57.2855 29.8361L57.2857 42.7981C57.2857 42.9736 57.1922 43.136 57.0399 43.2238ZM45.5682 48.7115L56.3023 42.5143L56.3021 30.1199L45.5687 23.9228L34.8394 30.1173L34.8396 42.517L45.5682 48.7115ZM23.1223 48.7086L33.8514 42.5143L33.8511 30.1199L23.1177 23.9228L12.3886 30.1171L12.3888 42.5114L23.1223 48.7086ZM34.3477 29.2657L45.077 23.0711L45.0767 10.677L34.3431 4.47971L23.6089 10.677L23.6094 23.0654L34.3477 29.2657ZM45.7664 46.4543C45.6192 46.5393 45.4321 46.5454 45.2743 46.4545L36.7912 41.5567C36.6391 41.4689 36.5453 41.3065 36.5453 41.1308L36.5451 31.3353C36.5453 31.0636 36.7645 30.8436 37.0368 30.8436C37.3085 30.8434 37.5283 31.0636 37.5285 31.3353L37.5283 40.8472L45.766 45.6029C46.0012 45.7388 46.0818 46.0394 45.9458 46.2744C45.9012 46.3519 45.8383 46.4128 45.7664 46.4543ZM23.3688 46.6898C23.2216 46.7747 23.0345 46.7809 22.8767 46.69L14.2596 41.7152C14.1075 41.6271 14.0139 41.4649 14.0138 41.2893L14.0139 31.3393C14.0139 31.1636 14.1077 31.0012 14.2598 30.9135L22.8767 25.9385C23.1117 25.8028 23.4127 25.8834 23.5485 26.1184C23.6842 26.3534 23.6034 26.6542 23.3684 26.79L14.9973 31.6231L14.9972 41.0055L23.3684 45.8383C23.6034 45.9743 23.6842 46.2749 23.5482 46.5101C23.5037 46.5876 23.441 46.6481 23.3688 46.6898ZM26.1054 22.1981C26.0332 22.2398 25.9494 22.2638 25.8598 22.2636C25.5881 22.2636 25.3683 22.0435 25.3681 21.7719L25.3678 11.9761C25.3678 11.8005 25.4618 11.6381 25.6137 11.5503L34.097 6.65251C34.332 6.51681 34.633 6.59743 34.7688 6.83246C34.9045 7.06752 34.8237 7.36841 34.5887 7.50409L26.3512 12.26L26.3514 21.7719C26.3514 21.954 26.2524 22.1131 26.1054 22.1981Z" fill="#272727" fill-opacity="0.02"/>
</g>
<defs>
<filter id="filter0_ii_9_3" x="8.82758" y="1.20689" width="50.7586" height="57.1724" filterUnits="userSpaceOnUse" color-interpolation-filters="sRGB">
<feFlood flood-opacity="0" result="BackgroundImageFix"/>
<feBlend mode="normal" in="SourceGraphic" in2="BackgroundImageFix" result="shape"/>
<feColorMatrix in="SourceAlpha" type="matrix" values="0 0 0 0 0 0 0 0 0 0 0 0 0 0 0 0 0 0 127 0" result="hardAlpha"/>
<feOffset dy="-1"/>
<feGaussianBlur stdDeviation="1.5"/>
<feComposite in2="hardAlpha" operator="arithmetic" k2="-1" k3="1"/>
<feColorMatrix type="matrix" values="0 0 0 0 0.152941 0 0 0 0 0.152941 0 0 0 0 0.152941 0 0 0 0.25 0"/>
<feBlend mode="normal" in2="shape" result="effect1_innerShadow_9_3"/>
<feColorMatrix in="SourceAlpha" type="matrix" values="0 0 0 0 0 0 0 0 0 0 0 0 0 0 0 0 0 0 127 0" result="hardAlpha"/>
<feOffset dy="1"/>
<feGaussianBlur stdDeviation="1.5"/>
<feComposite in2="hardAlpha" operator="arithmetic" k2="-1" k3="1"/>
<feColorMatrix type="matrix" values="0 0 0 0 0.152941 0 0 0 0 0.152941 0 0 0 0 0.152941 0 0 0 0.25 0"/>
<feBlend mode="normal" in2="effect1_innerShadow_9_3" result="effect2_innerShadow_9_3"/>
</filter>
<clipPath id="clip0_9_3">
<rect width="64" height="64" fill="white"/>
</clipPath>
</defs>
</svg>
